<svg width="360" height="147" viewBox="0 0 360 147" fill="none" xmlns="http://www.w3.org/2000/svg">
<path d="M360 0H0V107.479C0 107.479 80.7445 147 174.745 147C268.745 147 360 107.479 360 107.479V0Z" fill="url(#paint0_radial_1_2436)"/>
<mask id="mask0_1_2436" style="mask-type:alpha" maskUnits="userSpaceOnUse" x="0" y="0" width="360" height="147">
<path d="M360 0H0V107.479C0 107.479 80.7445 146.036 174.745 146.036C268.745 146.036 360 107.479 360 107.479V0Z" fill="#E52138"/>
</mask>
<g mask="url(#mask0_1_2436)">
<path d="M171.775 104.577V129.858H-6.13184V103.141H-1.25491V115.143L4.44067 115.079L9.69544 115.015V83.1032H15.6639V51.1911H21.3035V37.5931H31.4912V50.449H38.6491V80.39L38.929 80.4937L42.2876 81.7227L43.9669 82.3531L48.0042 83.8374L48.5359 84.0369L49.6695 84.4518L49.8934 84.5316L50.4601 84.7391L51.8245 85.2418L52.8671 85.6329L54.2315 86.1356L54.7983 86.3431L55.3301 86.5346L66.8542 90.78V46.9936H77.9165V64.5497H98.9495V50.7043H115.435V86.0718H136.908V57.3836H144.934V41.0565H162.937V119.724H169.445V104.577H171.775Z" fill="url(#paint1_linear_1_2436)"/>
<path d="M18.5957 52.6594H16.6645V129.866H18.5957V52.6594Z" fill="#E52138"/>
<path d="M21.2125 52.6594H19.2814V129.866H21.2125V52.6594Z" fill="#E52138"/>
<path d="M24.823 39.0455H22.8918V129.858H24.823V39.0455Z" fill="#E52138"/>
<path d="M27.4399 39.0455H25.5087V129.858H27.4399V39.0455Z" fill="#E52138"/>
<path d="M30.0638 39.0455H28.1396V129.858H30.0638V39.0455Z" fill="#E52138"/>
<path d="M34.0171 52.6594H32.0859V129.866H34.0171V52.6594Z" fill="#E52138"/>
<path d="M36.641 52.6594H34.7098V129.866H36.641V52.6594Z" fill="#E52138"/>
<path d="M70.5556 48.3901H68.6314V129.858H70.5556V48.3901Z" fill="#E52138"/>
<path d="M73.4873 48.3901H71.5632V129.858H73.4873V48.3901Z" fill="#E52138"/>
<path d="M76.4121 48.3901H74.4879V129.858H76.4121V48.3901Z" fill="#E52138"/>
<path d="M80.3165 66.1138H78.3923V129.858H80.3165V66.1138Z" fill="#E52138"/>
<path d="M83.2482 66.1138H81.324V129.858H83.2482V66.1138Z" fill="#E52138"/>
<path d="M101.951 52.0131H100.027V129.858H101.951V52.0131Z" fill="#E52138"/>
<path d="M104.967 52.0131H103.036V129.858H104.967V52.0131Z" fill="#E52138"/>
<path d="M107.976 52.0131H106.051V129.858H107.976V52.0131Z" fill="#E52138"/>
<path d="M110.984 52.0131H109.053V129.858H110.984V52.0131Z" fill="#E52138"/>
<path d="M113.993 52.0131H112.069V129.858H113.993V52.0131Z" fill="#E52138"/>
<path d="M140.022 58.5646H138.098V129.858H140.022V58.5646Z" fill="#E52138"/>
<path d="M143.821 58.5646H141.89V129.858H143.821V58.5646Z" fill="#E52138"/>
<path d="M148.405 42.6125H146.473V129.866H148.405V42.6125Z" fill="#E52138"/>
<path d="M151.658 42.6125H149.727V129.866H151.658V42.6125Z" fill="#E52138"/>
<path d="M154.912 42.6125H152.981V129.866H154.912V42.6125Z" fill="#E52138"/>
<path d="M158.165 42.6125H156.234V129.866H158.165V42.6125Z" fill="#E52138"/>
<path d="M161.419 42.6125H159.488V129.866H161.419V42.6125Z" fill="#E52138"/>
<path d="M177.47 104.577V129.858H-6.13184V103.141H4.44067V115.143L15.391 115.015V75.8095L15.6569 75.8893L16.6575 76.2085L18.5887 76.807L19.2814 77.0224L21.2125 77.6289L21.3525 77.6768L22.3531 77.988L22.8778 78.1476L24.2842 78.5945L24.809 78.7541L24.97 78.8099L25.4947 78.9695L26.9011 79.4164L27.4259 79.576L28.1256 79.7915L28.5734 79.9351L30.0498 80.406L30.5046 80.5496L31.1973 80.7651L32.0719 81.0364L33.1355 81.3636L33.8352 81.587L34.0101 81.6429L34.7098 81.8663L35.7664 82.1935L36.648 82.4648L37.7885 82.8239L38.936 83.191L39.7267 83.4384L40.4264 83.6538L40.6783 83.7336V125.166L42.3576 125.102L43.82 125.046V87.572H48.0462L48.0112 83.8533L47.9902 81.7386L47.9342 75.8254H52.1604V79.3925L57.856 79.3446V69.7446H71.2553V79.5202H76.0273V72.8968H81.45V87.5561H87.4674V67.7097H89.2587V63.8155H90.6441V57.3916H92.6732V52.3163H100.895V57.607H103.784V64.3741L104.666 64.3821L104.988 64.3901L105.751 64.398H105.849V67.598H106.073L107.682 67.59H107.724L107.682 79.4244L107.654 87.3166H107.682L108.004 87.3087L108.766 87.2927L109.074 87.2847V72.6574H111.019L111.782 72.6494H115.463L116.715 72.6414H121.158L124.524 72.6334L129.338 72.6254V61.1661H143.57V119.596H146.648V70.1197H156.626V111.065H159.229V93.2538L159.516 93.4772L160.642 94.363L161.447 95.0014L161.958 95.4004L162.958 96.1904L163.889 96.9246L165.211 97.962L167.143 99.4782L167.255 99.566V116.5C167.255 116.5 168.052 116.691 168.661 116.723C169.025 116.731 169.312 116.683 169.312 116.5V104.577H177.47Z" fill="url(#paint2_linear_1_2436)"/>
<path d="M11.1648 118.335H9.23364V121.232H11.1648V118.335Z" fill="#E52138"/>
<path d="M19.3163 82.7122H17.3852V85.6089H19.3163V82.7122Z" fill="#E52138"/>
<path d="M22.633 82.7122H20.7018V85.6089H22.633V82.7122Z" fill="#E52138"/>
<path d="M25.9495 82.7122H24.0183V85.6089H25.9495V82.7122Z" fill="#E52138"/>
<path d="M29.2731 82.7122H27.3419V85.6089H29.2731V82.7122Z" fill="#E52138"/>
<path d="M22.633 94.77H20.7018V97.6668H22.633V94.77Z" fill="#E52138"/>
<path d="M25.9495 94.77H24.0183V97.6668H25.9495V94.77Z" fill="#E52138"/>
<path d="M29.2731 94.77H27.3419V97.6668H29.2731V94.77Z" fill="#E52138"/>
<path d="M25.2568 106.828H23.3257V109.725H25.2568V106.828Z" fill="#E52138"/>
<path d="M28.5804 106.828H26.6492V109.725H28.5804V106.828Z" fill="#E52138"/>
<path d="M37.2008 106.828H35.2696V109.725H37.2008V106.828Z" fill="#E52138"/>
<path d="M25.0329 110.914H23.1017V113.81H25.0329V110.914Z" fill="#E52138"/>
<path d="M28.3495 110.914H26.4183V113.81H28.3495V110.914Z" fill="#E52138"/>
<path d="M35.8853 93.9321H33.9541V96.8289H35.8853V93.9321Z" fill="#E52138"/>
<path d="M19.3163 102.439H17.3852V105.336H19.3163V102.439Z" fill="#E52138"/>
<path d="M39.3628 93.9321H37.4317V96.8289H39.3628V93.9321Z" fill="#E52138"/>
<path d="M62.2361 72.6573H60.3049V77.7566H62.2361V72.6573Z" fill="#E52138"/>
<path d="M65.2728 72.6573H63.3417V77.7566H65.2728V72.6573Z" fill="#E52138"/>
<path d="M68.3096 72.6573H66.3784V77.7566H68.3096V72.6573Z" fill="#E52138"/>
<path d="M22.633 88.3381H20.7018V91.2349H22.633V88.3381Z" fill="#E52138"/>
<path d="M25.9495 88.3381H24.0183V91.2349H25.9495V88.3381Z" fill="#E52138"/>
<path d="M29.2731 88.3381H27.3419V91.2349H29.2731V88.3381Z" fill="#E52138"/>
<path d="M51.8246 83.6378H49.8934V86.5345H51.8246V83.6378Z" fill="#E52138"/>
<path d="M56.1627 83.6378H54.2315V86.5345H56.1627V83.6378Z" fill="#E52138"/>
<path d="M60.5009 83.6378H58.5697V86.5345H60.5009V83.6378Z" fill="#E52138"/>
<path d="M47.7033 91.8733H45.7721V94.77H47.7033V91.8733Z" fill="#E52138"/>
<path d="M50.2083 91.8733H48.2771V94.77H50.2083V91.8733Z" fill="#E52138"/>
<path d="M52.7132 91.8733H50.782V94.77H52.7132V91.8733Z" fill="#E52138"/>
<path d="M55.2181 91.8733H53.2869V94.77H55.2181V91.8733Z" fill="#E52138"/>
<path d="M57.7231 91.8733H55.7919V94.77H57.7231V91.8733Z" fill="#E52138"/>
<path d="M60.228 91.8733H58.2968V94.77H60.228V91.8733Z" fill="#E52138"/>
<path d="M78.7211 91.8733H76.7899V94.77H78.7211V91.8733Z" fill="#E52138"/>
<path d="M95.1082 69.7606H93.177V72.6574H95.1082V69.7606Z" fill="#E52138"/>
<path d="M97.963 69.7606H96.0318V72.6574H97.963V69.7606Z" fill="#E52138"/>
<path d="M91.2318 75.2109H89.3006V78.1077H91.2318V75.2109Z" fill="#E52138"/>
<path d="M94.1426 75.2109H92.2114V78.1077H94.1426V75.2109Z" fill="#E52138"/>
<path d="M97.0533 75.2109H95.1222V78.1077H97.0533V75.2109Z" fill="#E52138"/>
<path d="M99.9641 75.2109H98.0329V78.1077H99.9641V75.2109Z" fill="#E52138"/>
<path d="M102.875 75.2109H100.944V78.1077H102.875V75.2109Z" fill="#E52138"/>
<path d="M95.451 81.6428H93.5198V84.5395H95.451V81.6428Z" fill="#E52138"/>
<path d="M97.6971 81.6428H95.7659V84.5395H97.6971V81.6428Z" fill="#E52138"/>
<path d="M90.6511 91.2349H88.7199V94.1316H90.6511V91.2349Z" fill="#E52138"/>
<path d="M93.177 91.2349H91.2458V94.1316H93.177V91.2349Z" fill="#E52138"/>
<path d="M102.511 91.2349H100.58V94.1316H102.511V91.2349Z" fill="#E52138"/>
<path d="M105.023 91.2349H103.092V94.1316H105.023V91.2349Z" fill="#E52138"/>
<path d="M113.265 74.2054H111.334V77.1022H113.265V74.2054Z" fill="#E52138"/>
<path d="M123.81 74.2054H121.879V77.1022H123.81V74.2054Z" fill="#E52138"/>
<path d="M123.81 79.8154H121.879V82.7122H123.81V79.8154Z" fill="#E52138"/>
<path d="M123.81 85.4174H121.879V88.3141H123.81V85.4174Z" fill="#E52138"/>
<path d="M120.556 85.0902H118.625V87.987H120.556V85.0902Z" fill="#E52138"/>
<path d="M115.812 85.0902H113.881V87.987H115.812V85.0902Z" fill="#E52138"/>
<path d="M126.903 74.2054H124.971V77.1022H126.903V74.2054Z" fill="#E52138"/>
<path d="M126.903 79.8154H124.971V82.7122H126.903V79.8154Z" fill="#E52138"/>
<path d="M137.692 63.8474H135.761V66.7442H137.692V63.8474Z" fill="#E52138"/>
<path d="M141.939 63.8474H140.008V66.7442H141.939V63.8474Z" fill="#E52138"/>
<path d="M137.692 67.8055H135.761V70.7023H137.692V67.8055Z" fill="#E52138"/>
<path d="M141.939 67.8055H140.008V70.7023H141.939V67.8055Z" fill="#E52138"/>
<path d="M149.748 72.0748H147.817V74.9715H149.748V72.0748Z" fill="#E52138"/>
<path d="M152.351 72.0748H150.42V74.9715H152.351V72.0748Z" fill="#E52138"/>
<path d="M149.965 76.6554H148.034V79.5521H149.965V76.6554Z" fill="#E52138"/>
<path d="M155.611 83.1031H153.68V85.9999H155.611V83.1031Z" fill="#E52138"/>
<path d="M155.611 87.9869H153.68V90.8837H155.611V87.9869Z" fill="#E52138"/>
<path d="M155.611 92.8707H153.68V95.7675H155.611V92.8707Z" fill="#E52138"/>
<path d="M155.611 97.7545H153.68V100.651H155.611V97.7545Z" fill="#E52138"/>
<path d="M162.448 97.6667H160.516V100.563H162.448V97.6667Z" fill="#E52138"/>
<path d="M166.023 107.035H164.092V109.932H166.023V107.035Z" fill="#E52138"/>
<path d="M176.211 104.96H174.28V107.857H176.211V104.96Z" fill="#E52138"/>
<path d="M172.733 104.96H170.802V107.857H172.733V104.96Z" fill="#E52138"/>
<path d="M137.692 75.6499H135.761V78.5467H137.692V75.6499Z" fill="#E52138"/>
<path d="M132.297 75.2109H130.366V78.1077H132.297V75.2109Z" fill="#E52138"/>
<path d="M141.939 75.6499H140.008V78.5467H141.939V75.6499Z" fill="#E52138"/>
<path d="M137.692 83.5022H135.761V86.399H137.692V83.5022Z" fill="#E52138"/>
<path d="M141.939 83.5022H140.008V86.399H141.939V83.5022Z" fill="#E52138"/>
<path d="M137.692 91.3466H135.761V94.2433H137.692V91.3466Z" fill="#E52138"/>
<path d="M141.939 91.3466H140.008V94.2433H141.939V91.3466Z" fill="#E52138"/>
<path d="M137.692 99.1909H135.761V102.088H137.692V99.1909Z" fill="#E52138"/>
<path d="M141.939 99.1909H140.008V102.088H141.939V99.1909Z" fill="#E52138"/>
<path d="M137.692 107.035H135.761V109.932H137.692V107.035Z" fill="#E52138"/>
<path d="M141.939 107.035H140.008V109.932H141.939V107.035Z" fill="#E52138"/>
<path d="M126.903 85.4174H124.971V88.3141H126.903V85.4174Z" fill="#E52138"/>
<path d="M123.81 96.6373H121.879V99.5341H123.81V96.6373Z" fill="#E52138"/>
<path d="M113.265 97.6667H111.334V100.563H113.265V97.6667Z" fill="#E52138"/>
<path d="M113.265 103.133H111.334V106.03H113.265V103.133Z" fill="#E52138"/>
<path d="M113.265 108.599H111.334V111.496H113.265V108.599Z" fill="#E52138"/>
<path d="M113.265 114.066H111.334V116.962H113.265V114.066Z" fill="#E52138"/>
<path d="M99.8101 59.1472H93.6528V62.044H99.8101V59.1472Z" fill="#E52138"/>
<path d="M48.6689 105.383H46.7377V108.28H48.6689V105.383Z" fill="#E52138"/>
<path d="M51.1738 105.655H49.2426V108.552H51.1738V105.655Z" fill="#E52138"/>
<path d="M72.5218 106.03H70.5906V108.927H72.5218V106.03Z" fill="#E52138"/>
<path d="M75.9993 106.03H74.0681V108.927H75.9993V106.03Z" fill="#E52138"/>
<path d="M2.92233 111.073H0.99115V113.97H2.92233V111.073Z" fill="#E52138"/>
<path d="M4.44067 103.141H-6.13184V103.356H4.44067V103.141Z" fill="url(#paint3_linear_1_2436)"/>
<path d="M356.422 104.792V130.073H178.516V103.355H183.393V115.357L189.088 115.294L194.343 115.23V83.3176H200.311V51.4054H205.951V37.8075H216.139V50.6633H223.297V80.6044L223.576 80.7081L226.935 81.937L228.614 82.5674L232.652 84.0517L233.183 84.2512L234.317 84.6662L234.541 84.746L235.108 84.9535L236.472 85.4562L237.515 85.8472L238.879 86.35L239.446 86.5574L239.978 86.749L251.502 90.9943V47.208H262.564V64.764H283.597V50.9187H300.082V86.2861H321.556V57.5979H329.581V41.2708H347.585V119.938H354.092V104.792H356.422Z" fill="url(#paint4_linear_1_2436)"/>
<path d="M181.867 103.355H179.936V130.072H181.867V103.355Z" fill="#E52138"/>
<path d="M203.243 52.8738H201.312V130.08H203.243V52.8738Z" fill="#E52138"/>
<path d="M205.86 52.8738H203.929V130.08H205.86V52.8738Z" fill="#E52138"/>
<path d="M209.47 39.2599H207.539V130.072H209.47V39.2599Z" fill="#E52138"/>
<path d="M212.087 39.2599H210.156V130.072H212.087V39.2599Z" fill="#E52138"/>
<path d="M214.711 39.2599H212.787V130.072H214.711V39.2599Z" fill="#E52138"/>
<path d="M218.665 52.8738H216.733V130.08H218.665V52.8738Z" fill="#E52138"/>
<path d="M221.288 52.8738H219.357V130.08H221.288V52.8738Z" fill="#E52138"/>
<path d="M255.203 48.6045H253.279V130.073H255.203V48.6045Z" fill="#E52138"/>
<path d="M258.135 48.6045H256.211V130.073H258.135V48.6045Z" fill="#E52138"/>
<path d="M261.06 48.6045H259.135V130.073H261.06V48.6045Z" fill="#E52138"/>
<path d="M264.964 66.3281H263.04V130.073H264.964V66.3281Z" fill="#E52138"/>
<path d="M267.896 66.3281H265.971V130.073H267.896V66.3281Z" fill="#E52138"/>
<path d="M286.599 52.2274H284.675V130.073H286.599V52.2274Z" fill="#E52138"/>
<path d="M289.614 52.2274H287.683V130.073H289.614V52.2274Z" fill="#E52138"/>
<path d="M292.623 52.2274H290.699V130.073H292.623V52.2274Z" fill="#E52138"/>
<path d="M295.632 52.2274H293.701V130.073H295.632V52.2274Z" fill="#E52138"/>
<path d="M298.641 52.2274H296.716V130.073H298.641V52.2274Z" fill="#E52138"/>
<path d="M324.67 58.7789H322.745V130.072H324.67V58.7789Z" fill="#E52138"/>
<path d="M328.469 58.7789H326.538V130.072H328.469V58.7789Z" fill="#E52138"/>
<path d="M333.052 42.8269H331.121V130.08H333.052V42.8269Z" fill="#E52138"/>
<path d="M336.306 42.8269H334.374V130.08H336.306V42.8269Z" fill="#E52138"/>
<path d="M339.559 42.8269H337.628V130.08H339.559V42.8269Z" fill="#E52138"/>
<path d="M342.813 42.8269H340.882V130.08H342.813V42.8269Z" fill="#E52138"/>
<path d="M346.066 42.8269H344.135V130.08H346.066V42.8269Z" fill="#E52138"/>
<path d="M362.118 102.375V126.744H178.516V100.99H189.088V112.559L200.038 112.436V74.6443L200.304 74.7212L201.305 75.0289L203.236 75.6058L203.929 75.8135L205.86 76.3981L206 76.4443L207.001 76.7443L207.525 76.8981L208.932 77.3289L209.456 77.4827L209.617 77.5366L210.142 77.6904L211.549 78.1212L212.073 78.275L212.773 78.4827L213.221 78.6212L214.697 79.075L215.152 79.2135L215.845 79.4212L216.719 79.6827L217.783 79.9981L218.483 80.2135L218.658 80.2673L219.357 80.4827L220.414 80.7981L221.295 81.0596L222.436 81.4058L223.583 81.7596L224.374 81.9981L225.074 82.2057L225.326 82.2827V122.221L227.005 122.159L228.467 122.105V85.9826H232.694L232.659 82.3981L232.638 80.3596L232.582 74.6597H236.808V78.0981L242.503 78.0519V68.7982H255.903V78.2212H260.675V71.8366H266.097V85.9672H272.115V66.8367H273.906V63.0829H275.292V56.8907H277.321V51.9984H285.542V57.0984H288.432V63.6213L289.314 63.629L289.635 63.6367L290.398 63.6444H290.496V66.729H290.72L292.329 66.7213H292.371L292.329 78.1289L292.301 85.7365H292.329L292.651 85.7288L293.414 85.7134L293.722 85.7057V71.6059H295.667L296.43 71.5982H300.11L301.362 71.5905H305.806L309.171 71.5828L313.985 71.5751V60.5291H328.217V116.851H331.296V69.1597H341.273V108.629H343.876V91.4595L344.163 91.6749L345.29 92.5287L346.094 93.1441L346.605 93.5287L347.606 94.2902L348.536 94.9979L349.859 95.9979L351.79 97.4594L351.902 97.544V113.867C351.902 113.867 352.7 114.052 353.308 114.082C353.672 114.09 353.959 114.044 353.959 113.867V102.375H362.118Z" fill="url(#paint5_linear_1_2436)"/>
<path d="M182.028 105.173H180.097V107.965H182.028V105.173Z" fill="#E52138"/>
<path d="M195.812 115.637H193.881V118.429H195.812V115.637Z" fill="#E52138"/>
<path d="M203.963 81.2968H202.032V84.089H203.963V81.2968Z" fill="#E52138"/>
<path d="M207.281 81.2968H205.35V84.089H207.281V81.2968Z" fill="#E52138"/>
<path d="M210.597 81.2968H208.666V84.089H210.597V81.2968Z" fill="#E52138"/>
<path d="M213.92 81.2968H211.989V84.089H213.92V81.2968Z" fill="#E52138"/>
<path d="M207.281 92.9204H205.35V95.7127H207.281V92.9204Z" fill="#E52138"/>
<path d="M210.597 92.9204H208.666V95.7127H210.597V92.9204Z" fill="#E52138"/>
<path d="M213.92 92.9204H211.989V95.7127H213.92V92.9204Z" fill="#E52138"/>
<path d="M209.904 104.544H207.973V107.336H209.904V104.544Z" fill="#E52138"/>
<path d="M213.228 104.544H211.297V107.336H213.228V104.544Z" fill="#E52138"/>
<path d="M221.848 104.544H219.917V107.336H221.848V104.544Z" fill="#E52138"/>
<path d="M209.68 108.483H207.749V111.275H209.68V108.483Z" fill="#E52138"/>
<path d="M212.997 108.483H211.065V111.275H212.997V108.483Z" fill="#E52138"/>
<path d="M220.533 92.1146H218.602V94.9069H220.533V92.1146Z" fill="#E52138"/>
<path d="M203.963 100.312H202.032V103.104H203.963V100.312Z" fill="#E52138"/>
<path d="M224.01 92.1146H222.079V94.9069H224.01V92.1146Z" fill="#E52138"/>
<path d="M246.883 71.6047H244.952V76.5201H246.883V71.6047Z" fill="#E52138"/>
<path d="M249.92 71.6047H247.989V76.5201H249.92V71.6047Z" fill="#E52138"/>
<path d="M252.957 71.6047H251.025V76.5201H252.957V71.6047Z" fill="#E52138"/>
<path d="M207.281 86.7227H205.35V89.5149H207.281V86.7227Z" fill="#E52138"/>
<path d="M210.597 86.7227H208.666V89.5149H210.597V86.7227Z" fill="#E52138"/>
<path d="M213.92 86.7227H211.989V89.5149H213.92V86.7227Z" fill="#E52138"/>
<path d="M236.472 82.1891H234.541V84.9813H236.472V82.1891Z" fill="#E52138"/>
<path d="M240.81 82.1891H238.879V84.9813H240.81V82.1891Z" fill="#E52138"/>
<path d="M245.148 82.1891H243.217V84.9813H245.148V82.1891Z" fill="#E52138"/>
<path d="M232.351 90.1302H230.42V92.9225H232.351V90.1302Z" fill="#E52138"/>
<path d="M234.856 90.1302H232.925V92.9225H234.856V90.1302Z" fill="#E52138"/>
<path d="M237.361 90.1302H235.43V92.9225H237.361V90.1302Z" fill="#E52138"/>
<path d="M239.866 90.1302H237.935V92.9225H239.866V90.1302Z" fill="#E52138"/>
<path d="M242.371 90.1302H240.439V92.9225H242.371V90.1302Z" fill="#E52138"/>
<path d="M244.876 90.1302H242.944V92.9225H244.876V90.1302Z" fill="#E52138"/>
<path d="M263.369 90.1302H261.438V92.9225H263.369V90.1302Z" fill="#E52138"/>
<path d="M279.755 68.8146H277.824V71.6068H279.755V68.8146Z" fill="#E52138"/>
<path d="M282.611 68.8146H280.68V71.6068H282.611V68.8146Z" fill="#E52138"/>
<path d="M275.879 74.0673H273.948V76.8595H275.879V74.0673Z" fill="#E52138"/>
<path d="M278.79 74.0673H276.858V76.8595H278.79V74.0673Z" fill="#E52138"/>
<path d="M281.701 74.0673H279.77V76.8595H281.701V74.0673Z" fill="#E52138"/>
<path d="M284.612 74.0673H282.681V76.8595H284.612V74.0673Z" fill="#E52138"/>
<path d="M287.522 74.0673H285.591V76.8595H287.522V74.0673Z" fill="#E52138"/>
<path d="M280.098 80.2688H278.167V83.061H280.098V80.2688Z" fill="#E52138"/>
<path d="M282.344 80.2688H280.413V83.061H282.344V80.2688Z" fill="#E52138"/>
<path d="M275.298 89.5128H273.367V92.3051H275.298V89.5128Z" fill="#E52138"/>
<path d="M277.825 89.5128H275.894V92.3051H277.825V89.5128Z" fill="#E52138"/>
<path d="M287.159 89.5128H285.228V92.3051H287.159V89.5128Z" fill="#E52138"/>
<path d="M289.67 89.5128H287.739V92.3051H289.67V89.5128Z" fill="#E52138"/>
<path d="M297.913 73.0995H295.981V75.8918H297.913V73.0995Z" fill="#E52138"/>
<path d="M308.457 73.0995H306.526V75.8918H308.457V73.0995Z" fill="#E52138"/>
<path d="M308.457 78.5066H306.526V81.2989H308.457V78.5066Z" fill="#E52138"/>
<path d="M308.457 83.9061H306.526V86.6984H308.457V83.9061Z" fill="#E52138"/>
<path d="M305.204 83.5898H303.272V86.3821H305.204V83.5898Z" fill="#E52138"/>
<path d="M300.459 83.5898H298.528V86.3821H300.459V83.5898Z" fill="#E52138"/>
<path d="M311.55 73.0995H309.619V75.8918H311.55V73.0995Z" fill="#E52138"/>
<path d="M311.55 78.5066H309.619V81.2989H311.55V78.5066Z" fill="#E52138"/>
<path d="M322.339 63.1138H320.408V65.906H322.339V63.1138Z" fill="#E52138"/>
<path d="M326.586 63.1138H324.655V65.906H326.586V63.1138Z" fill="#E52138"/>
<path d="M322.339 66.9281H320.408V69.7204H322.339V66.9281Z" fill="#E52138"/>
<path d="M326.586 66.9281H324.655V69.7204H326.586V66.9281Z" fill="#E52138"/>
<path d="M334.395 71.0437H332.464V73.8359H334.395V71.0437Z" fill="#E52138"/>
<path d="M336.999 71.0437H335.067V73.8359H336.999V71.0437Z" fill="#E52138"/>
<path d="M334.612 75.4604H332.681V78.2527H334.612V75.4604Z" fill="#E52138"/>
<path d="M340.259 81.6733H338.328V84.4656H340.259V81.6733Z" fill="#E52138"/>
<path d="M340.259 86.3838H338.328V89.1761H340.259V86.3838Z" fill="#E52138"/>
<path d="M340.259 91.0905H338.328V93.8827H340.259V91.0905Z" fill="#E52138"/>
<path d="M340.259 95.7972H338.328V98.5895H340.259V95.7972Z" fill="#E52138"/>
<path d="M347.095 95.7144H345.164V98.5066H347.095V95.7144Z" fill="#E52138"/>
<path d="M350.67 104.744H348.739V107.536H350.67V104.744Z" fill="#E52138"/>
<path d="M360.858 102.744H358.927V105.537H360.858V102.744Z" fill="#E52138"/>
<path d="M357.38 102.744H355.449V105.537H357.38V102.744Z" fill="#E52138"/>
<path d="M322.339 74.489H320.408V77.2813H322.339V74.489Z" fill="#E52138"/>
<path d="M316.945 74.0673H315.014V76.8595H316.945V74.0673Z" fill="#E52138"/>
<path d="M326.586 74.489H324.655V77.2813H326.586V74.489Z" fill="#E52138"/>
<path d="M322.339 82.0612H320.408V84.8535H322.339V82.0612Z" fill="#E52138"/>
<path d="M326.586 82.0612H324.655V84.8535H326.586V82.0612Z" fill="#E52138"/>
<path d="M322.339 89.6219H320.408V92.4142H322.339V89.6219Z" fill="#E52138"/>
<path d="M326.586 89.6219H324.655V92.4142H326.586V89.6219Z" fill="#E52138"/>
<path d="M322.339 97.1829H320.408V99.9751H322.339V97.1829Z" fill="#E52138"/>
<path d="M326.586 97.1829H324.655V99.9751H326.586V97.1829Z" fill="#E52138"/>
<path d="M322.339 104.744H320.408V107.536H322.339V104.744Z" fill="#E52138"/>
<path d="M326.586 104.744H324.655V107.536H326.586V104.744Z" fill="#E52138"/>
<path d="M311.55 83.9061H309.619V86.6984H311.55V83.9061Z" fill="#E52138"/>
<path d="M308.457 94.7203H306.526V97.5126H308.457V94.7203Z" fill="#E52138"/>
<path d="M297.913 95.7144H295.981V98.5066H297.913V95.7144Z" fill="#E52138"/>
<path d="M297.913 100.982H295.981V103.774H297.913V100.982Z" fill="#E52138"/>
<path d="M297.913 106.25H295.981V109.042H297.913V106.25Z" fill="#E52138"/>
<path d="M297.913 111.521H295.981V114.314H297.913V111.521Z" fill="#E52138"/>
<path d="M284.457 58.584H278.3V61.3763H284.457V58.584Z" fill="#E52138"/>
<path d="M233.316 103.151H231.385V105.943H233.316V103.151Z" fill="#E52138"/>
<path d="M235.821 103.415H233.89V106.207H235.821V103.415Z" fill="#E52138"/>
<path d="M257.169 103.776H255.238V106.568H257.169V103.776Z" fill="#E52138"/>
<path d="M260.647 103.776H258.716V106.568H260.647V103.776Z" fill="#E52138"/>
<path d="M187.57 108.637H185.639V111.429H187.57V108.637Z" fill="#E52138"/>
<path d="M189.088 100.99H178.516V101.198H189.088V100.99Z" fill="url(#paint6_linear_1_2436)"/>
<path d="M77.292 33.5976C76.5923 33.5668 75.9275 33.6822 75.3048 33.913C74.1083 32.3207 72.3031 31.3053 70.2809 31.3053C66.8244 31.3053 63.9976 34.2668 63.7807 38.0052H63.7737C62.0174 38.0052 60.5201 39.4437 60.3242 41.359C60.3242 41.3744 60.3242 41.3898 60.3172 41.4052C60.2612 42.0359 60.716 42.5744 61.2898 42.5744H79.7199C81.3013 42.5744 82.5817 41.1359 82.5257 39.3975C82.5257 39.3744 82.5257 39.3514 82.5257 39.3206C82.3998 36.2283 80.1118 33.7207 77.292 33.5976Z" fill="url(#paint7_linear_1_2436)"/>
<path d="M105.706 42.4381C105.79 42.4381 105.867 42.4381 105.951 42.4458C106.538 38.8766 109.379 36.1767 112.794 36.1767C113.116 36.1767 113.424 36.1997 113.731 36.2459C115.32 33.0305 118.419 30.8459 121.988 30.8459C125.619 30.8459 128.775 33.1152 130.335 36.4382C130.909 36.269 131.504 36.1843 132.127 36.1767C135.87 36.169 138.921 39.3689 139.089 43.4843C139.145 44.8766 138.865 46.1842 138.326 47.3304C138.2 47.5996 137.941 47.7688 137.668 47.7688H102.347C101.941 47.7688 101.606 47.415 101.606 46.9688V46.9611C101.592 44.4612 103.432 42.4381 105.706 42.4381Z" fill="url(#paint8_linear_1_2436)"/>
<path d="M363.442 44.7612C363.247 44.7612 363.058 44.776 362.876 44.813C362.169 42.9929 360.524 41.7203 358.61 41.7203C356.695 41.7203 355.058 42.9929 354.35 44.7982C354.181 44.7686 354.013 44.7538 353.838 44.7538C352.038 44.7538 350.582 46.3519 350.582 48.3273C350.582 48.3347 350.582 48.3421 350.582 48.3495C350.589 49.5777 351.512 50.5543 352.631 50.5543H364.656C365.775 50.5543 366.698 49.5703 366.705 48.3495C366.705 48.3421 366.705 48.3347 366.705 48.3273C366.691 46.3593 365.235 44.7612 363.442 44.7612Z" fill="url(#paint9_linear_1_2436)"/>
<path d="M308.259 37.4191C307.941 37.4191 307.633 37.4417 307.336 37.4982C306.183 34.7178 303.502 32.7738 300.383 32.7738C297.263 32.7738 294.593 34.7178 293.44 37.4756C293.165 37.4304 292.89 37.4078 292.605 37.4078C289.672 37.4078 287.299 39.8491 287.299 42.8669C287.299 42.8782 287.299 42.8895 287.299 42.9008C287.31 44.777 288.815 46.2689 290.638 46.2689H310.237C312.06 46.2689 313.565 44.7657 313.576 42.9008C313.576 42.8895 313.576 42.8782 313.576 42.8669C313.554 39.8604 311.181 37.4191 308.259 37.4191Z" fill="url(#paint10_linear_1_2436)"/>
<path d="M179.365 41.0675C179.162 41.0675 178.966 41.0829 178.777 41.1214C178.043 39.2291 176.335 37.906 174.348 37.906C172.361 37.906 170.661 39.2291 169.926 41.106C169.751 41.0752 169.576 41.0598 169.394 41.0598C167.526 41.0598 166.015 42.7213 166.015 44.7752C166.015 44.7828 166.015 44.7905 166.015 44.7982C166.022 46.0751 166.98 47.0905 168.142 47.0905H180.624C181.786 47.0905 182.745 46.0674 182.752 44.7982C182.752 44.7905 182.752 44.7828 182.752 44.7752C182.738 42.729 181.226 41.0675 179.365 41.0675Z" fill="url(#paint11_linear_1_2436)"/>
<path d="M7.68627 63.2379C7.48335 63.2379 7.28744 63.2533 7.09852 63.2918C6.36384 61.3995 4.65656 60.0764 2.6694 60.0764C0.682247 60.0764 -1.01803 61.3995 -1.75271 63.2764C-1.92764 63.2456 -2.10257 63.2302 -2.2845 63.2302C-4.1527 63.2302 -5.66406 64.8917 -5.66406 66.9456C-5.66406 66.9533 -5.66406 66.9609 -5.66406 66.9686C-5.65707 68.2455 -4.69846 69.2609 -3.53696 69.2609H8.94573C10.1072 69.2609 11.0658 68.2379 11.0728 66.9686C11.0728 66.9609 11.0728 66.9533 11.0728 66.9456C11.0588 64.8994 9.54748 63.2379 7.68627 63.2379Z" fill="url(#paint12_linear_1_2436)"/>
</g>
<defs>
<radialGradient id="paint0_radial_1_2436" cx="0" cy="0" r="1" gradientUnits="userSpaceOnUse" gradientTransform="translate(180 73.5) rotate(90) scale(73.5 180)">
<stop stop-color="#FF3A52"/>
<stop offset="1" stop-color="#E52138"/>
</radialGradient>
<linearGradient id="paint1_linear_1_2436" x1="83.6033" y1="84.2129" x2="84.0727" y2="36.8531" gradientUnits="userSpaceOnUse">
<stop stop-color="#F32940"/>
<stop offset="0.963542" stop-color="#FF7787"/>
</linearGradient>
<linearGradient id="paint2_linear_1_2436" x1="86.4762" y1="91.4967" x2="86.7974" y2="51.693" gradientUnits="userSpaceOnUse">
<stop stop-color="#F32940"/>
<stop offset="0.963542" stop-color="#FF7787"/>
</linearGradient>
<linearGradient id="paint3_linear_1_2436" x1="-6.13184" y1="103.356" x2="-5.67827" y2="101.104" gradientUnits="userSpaceOnUse">
<stop stop-color="#A40C1E"/>
<stop offset="1" stop-color="#EF6575"/>
</linearGradient>
<linearGradient id="paint4_linear_1_2436" x1="268.251" y1="84.4273" x2="268.72" y2="37.0675" gradientUnits="userSpaceOnUse">
<stop stop-color="#F32940"/>
<stop offset="0.963542" stop-color="#FF7787"/>
</linearGradient>
<linearGradient id="paint5_linear_1_2436" x1="271.124" y1="89.7658" x2="271.422" y2="51.3974" gradientUnits="userSpaceOnUse">
<stop stop-color="#F32940"/>
<stop offset="0.963542" stop-color="#FF7787"/>
</linearGradient>
<linearGradient id="paint6_linear_1_2436" x1="183.848" y1="101.095" x2="183.848" y2="100.988" gradientUnits="userSpaceOnUse">
<stop stop-color="#F32940"/>
<stop offset="0.963542" stop-color="#FF7787"/>
</linearGradient>
<linearGradient id="paint7_linear_1_2436" x1="71.5176" y1="36.9994" x2="71.5737" y2="31.2149" gradientUnits="userSpaceOnUse">
<stop stop-color="#F32940"/>
<stop offset="0.963542" stop-color="#FF7787"/>
</linearGradient>
<linearGradient id="paint8_linear_1_2436" x1="120.515" y1="39.3968" x2="120.59" y2="30.71" gradientUnits="userSpaceOnUse">
<stop stop-color="#F32940"/>
<stop offset="0.963542" stop-color="#FF7787"/>
</linearGradient>
<linearGradient id="paint9_linear_1_2436" x1="358.714" y1="46.184" x2="358.762" y2="41.6495" gradientUnits="userSpaceOnUse">
<stop stop-color="#F32940"/>
<stop offset="0.963542" stop-color="#FF7787"/>
</linearGradient>
<linearGradient id="paint10_linear_1_2436" x1="300.553" y1="39.5926" x2="300.621" y2="32.6655" gradientUnits="userSpaceOnUse">
<stop stop-color="#F32940"/>
<stop offset="0.963542" stop-color="#FF7787"/>
</linearGradient>
<linearGradient id="paint11_linear_1_2436" x1="174.457" y1="42.5468" x2="174.506" y2="37.8324" gradientUnits="userSpaceOnUse">
<stop stop-color="#F32940"/>
<stop offset="0.963542" stop-color="#FF7787"/>
</linearGradient>
<linearGradient id="paint12_linear_1_2436" x1="2.77794" y1="64.7172" x2="2.82738" y2="60.0028" gradientUnits="userSpaceOnUse">
<stop stop-color="#F32940"/>
<stop offset="0.963542" stop-color="#FF7787"/>
</linearGradient>
</defs>
</svg>
