<svg width="18" height="14" viewBox="0 0 18 14" fill="none" xmlns="http://www.w3.org/2000/svg">
<path d="M17.2473 7.24966L17.2145 7.18159C16.1345 5.88821 14.5309 5.1394 12.8945 5.1394C12.7636 5.1394 12.6982 5.24151 12.6982 5.34362L12.6327 9.73432H1.17817C1.07999 9.76836 0.981812 9.87047 0.981812 9.97258V11.7425C0.981812 11.8786 1.07999 11.9467 1.17817 11.9467H17.8036C17.9345 11.9467 18 11.8446 18 11.7425V9.29185C18 8.54305 17.7382 7.82828 17.2473 7.24966Z" fill="#FBB040"/>
<path d="M10.3418 0H1.66909C0.752727 0 0 0.782837 0 1.73586V7.488C0 8.40699 0.752727 9.18982 1.66909 9.18982H10.3745C11.2909 9.18982 12.0436 8.40699 12.0436 7.45397V1.73586C12.0109 0.782837 11.2582 0 10.3418 0Z" fill="url(#paint0_linear_34_75)"/>
<g clip-path="url(#clip0_34_75)">
<path d="M8.71805 4.20318C8.69181 4.12508 8.61308 4.07301 8.50812 4.07301H7.24856V1.05303C7.24856 0.922863 7.14359 0.818726 7.01239 0.818726H5.0968C4.99184 0.818726 4.88687 0.922863 4.88687 1.05303V4.07301H3.62731C3.54859 4.07301 3.46986 4.12508 3.41738 4.20318C3.39114 4.28129 3.39114 4.38542 3.44362 4.43749L5.83155 7.35333C5.88403 7.4054 5.93651 7.43143 6.01523 7.43143C6.09396 7.43143 6.14644 7.4054 6.19892 7.35333L8.71805 4.43749C8.74429 4.38542 8.77053 4.28129 8.71805 4.20318Z" fill="#FBB040"/>
</g>
<path d="M15.0545 13.4103C15.7775 13.4103 16.3636 12.8008 16.3636 12.0488C16.3636 11.2969 15.7775 10.6874 15.0545 10.6874C14.3316 10.6874 13.7455 11.2969 13.7455 12.0488C13.7455 12.8008 14.3316 13.4103 15.0545 13.4103Z" fill="#013177"/>
<path d="M15.0546 13.7166C14.1709 13.7166 13.4836 12.9678 13.4836 12.0828C13.4836 11.1639 14.2036 10.4491 15.0546 10.4491C15.9382 10.4491 16.6255 11.1979 16.6255 12.0828C16.6255 12.9678 15.9055 13.7166 15.0546 13.7166ZM15.0546 10.9937C14.4982 10.9937 14.04 11.4702 14.04 12.0488C14.04 12.6274 14.4982 13.1039 15.0546 13.1039C15.6109 13.1039 16.0691 12.6274 16.0691 12.0488C16.0364 11.4702 15.6109 10.9937 15.0546 10.9937Z" fill="#013177"/>
<path d="M17.9018 8.5091C17.7709 8.03259 17.5746 7.59011 17.2473 7.24975L17.2146 7.18168C16.4618 6.29673 15.5127 5.68407 14.4327 5.37775C14.3673 5.34371 14.3018 5.37775 14.2364 5.41178C14.1709 5.44582 14.1382 5.51389 14.1382 5.58196V8.57717C14.1382 8.71332 14.2364 8.78139 14.3345 8.78139H17.6727C17.7382 8.78139 17.8036 8.74735 17.8364 8.67928C17.9018 8.64524 17.9346 8.57717 17.9018 8.5091Z" fill="url(#paint1_linear_34_75)"/>
<path d="M3.53453 13.6827C4.40213 13.6827 5.10545 12.9512 5.10545 12.0489C5.10545 11.1466 4.40213 10.4152 3.53453 10.4152C2.66694 10.4152 1.96362 11.1466 1.96362 12.0489C1.96362 12.9512 2.66694 13.6827 3.53453 13.6827Z" fill="#AD1426"/>
<path d="M15.0546 13.6827C15.9221 13.6827 16.6255 12.9512 16.6255 12.0489C16.6255 11.1466 15.9221 10.4152 15.0546 10.4152C14.187 10.4152 13.4836 11.1466 13.4836 12.0489C13.4836 12.9512 14.187 13.6827 15.0546 13.6827Z" fill="#AD1426"/>
<path d="M3.53454 13.2061C4.14908 13.2061 4.64727 12.688 4.64727 12.0488C4.64727 11.4097 4.14908 10.8916 3.53454 10.8916C2.92 10.8916 2.42181 11.4097 2.42181 12.0488C2.42181 12.688 2.92 13.2061 3.53454 13.2061Z" fill="#F7B8BF"/>
<path d="M15.0546 13.2061C15.6691 13.2061 16.1673 12.688 16.1673 12.0488C16.1673 11.4097 15.6691 10.8916 15.0546 10.8916C14.44 10.8916 13.9418 11.4097 13.9418 12.0488C13.9418 12.688 14.44 13.2061 15.0546 13.2061Z" fill="#F7B8BF"/>
<defs>
<linearGradient id="paint0_linear_34_75" x1="6.07476" y1="4.64344" x2="6.14353" y2="-0.0731704" gradientUnits="userSpaceOnUse">
<stop stop-color="#F32940"/>
<stop offset="0.963542" stop-color="#FF7787"/>
</linearGradient>
<linearGradient id="paint1_linear_34_75" x1="16.043" y1="7.09057" x2="16.0734" y2="5.33659" gradientUnits="userSpaceOnUse">
<stop stop-color="#F32940"/>
<stop offset="0.963542" stop-color="#FF7787"/>
</linearGradient>
<clipPath id="clip0_34_75">
<rect width="5.35314" height="6.61271" fill="white" transform="translate(3.39114 0.818726)"/>
</clipPath>
</defs>
</svg>
