<svg width="24" height="18" viewBox="0 0 24 18" fill="none" xmlns="http://www.w3.org/2000/svg">
<path d="M22.3091 9.31213L22.2682 9.22704C20.9182 7.61032 18.9136 6.67432 16.8682 6.67432C16.7045 6.67432 16.6227 6.80195 16.6227 6.92959L16.5409 12.418H2.22272C2.09999 12.4605 1.97726 12.5881 1.97726 12.7158V14.9281C1.97726 15.0983 2.09999 15.1834 2.22272 15.1834H23.0045C23.1682 15.1834 23.25 15.0558 23.25 14.9281V11.8649C23.25 10.9289 22.9227 10.0354 22.3091 9.31213Z" fill="#FBB040"/>
<path d="M13.6773 0.25H2.83636C1.69091 0.25 0.75 1.22855 0.75 2.41982V9.61C0.75 10.7587 1.69091 11.7373 2.83636 11.7373H13.7182C14.8636 11.7373 15.8045 10.7587 15.8045 9.56745V2.41982C15.7636 1.22855 14.8227 0.25 13.6773 0.25Z" fill="url(#paint0_linear_34_165)"/>
<g clip-path="url(#clip0_34_165)">
<path d="M5.95082 8.41294L4.59016 7.03875C4.54098 7.00004 4.4918 6.98068 4.44262 7.01939C4.39344 7.03875 4.36066 7.09681 4.36066 7.17423V7.81294H2.14754C2.06557 7.81294 2 7.89036 2 7.98713V9.03229C2 9.12907 2.06557 9.20649 2.14754 9.20649H4.36066V9.8452C4.36066 9.90326 4.39344 9.96133 4.44262 10C4.45902 10.0194 4.47541 10.0194 4.5082 10.0194C4.54098 10.0194 4.57377 10 4.59016 9.98068L5.93443 8.66455C5.96721 8.62584 5.98361 8.58713 5.98361 8.52907C6 8.49036 5.96721 8.45165 5.95082 8.41294Z" fill="#FBB040"/>
</g>
<path d="M19.5682 17.0129C20.4719 17.0129 21.2045 16.251 21.2045 15.3111C21.2045 14.3712 20.4719 13.6093 19.5682 13.6093C18.6644 13.6093 17.9318 14.3712 17.9318 15.3111C17.9318 16.251 18.6644 17.0129 19.5682 17.0129Z" fill="#013177"/>
<path d="M19.5682 17.3958C18.4637 17.3958 17.6046 16.4598 17.6046 15.3536C17.6046 14.2049 18.5046 13.3114 19.5682 13.3114C20.6728 13.3114 21.5318 14.2474 21.5318 15.3536C21.5318 16.4598 20.6318 17.3958 19.5682 17.3958ZM19.5682 13.9921C18.8728 13.9921 18.3 14.5878 18.3 15.311C18.3 16.0343 18.8728 16.6299 19.5682 16.6299C20.2637 16.6299 20.8364 16.0343 20.8364 15.311C20.7955 14.5878 20.2637 13.9921 19.5682 13.9921Z" fill="#013177"/>
<path d="M23.1273 10.8864C22.9637 10.2908 22.7182 9.73767 22.3091 9.31221L22.2682 9.22712C21.3273 8.12094 20.1409 7.35512 18.7909 6.97221C18.7091 6.92967 18.6273 6.97221 18.5455 7.01476C18.4637 7.0573 18.4228 7.14239 18.4228 7.22749V10.9715C18.4228 11.1417 18.5455 11.2268 18.6682 11.2268H22.8409C22.9228 11.2268 23.0046 11.1842 23.0455 11.0991C23.1273 11.0566 23.1682 10.9715 23.1273 10.8864Z" fill="url(#paint1_linear_34_165)"/>
<path d="M5.16816 17.3533C6.25265 17.3533 7.1318 16.439 7.1318 15.3111C7.1318 14.1832 6.25265 13.2689 5.16816 13.2689C4.08368 13.2689 3.20453 14.1832 3.20453 15.3111C3.20453 16.439 4.08368 17.3533 5.16816 17.3533Z" fill="#AD1426"/>
<path d="M19.5682 17.3533C20.6527 17.3533 21.5318 16.439 21.5318 15.3111C21.5318 14.1832 20.6527 13.2689 19.5682 13.2689C18.4837 13.2689 17.6046 14.1832 17.6046 15.3111C17.6046 16.439 18.4837 17.3533 19.5682 17.3533Z" fill="#AD1426"/>
<path d="M5.16822 16.7577C5.9364 16.7577 6.55913 16.1101 6.55913 15.3112C6.55913 14.5123 5.9364 13.8646 5.16822 13.8646C4.40004 13.8646 3.77731 14.5123 3.77731 15.3112C3.77731 16.1101 4.40004 16.7577 5.16822 16.7577Z" fill="#F7B8BF"/>
<path d="M19.5682 16.7577C20.3364 16.7577 20.9591 16.1101 20.9591 15.3112C20.9591 14.5123 20.3364 13.8646 19.5682 13.8646C18.8 13.8646 18.1773 14.5123 18.1773 15.3112C18.1773 16.1101 18.8 16.7577 19.5682 16.7577Z" fill="#F7B8BF"/>
<defs>
<linearGradient id="paint0_linear_34_165" x1="8.34344" y1="6.0543" x2="8.42941" y2="0.158537" gradientUnits="userSpaceOnUse">
<stop stop-color="#F32940"/>
<stop offset="0.963542" stop-color="#FF7787"/>
</linearGradient>
<linearGradient id="paint1_linear_34_165" x1="20.8038" y1="9.11323" x2="20.8417" y2="6.92076" gradientUnits="userSpaceOnUse">
<stop stop-color="#F32940"/>
<stop offset="0.963542" stop-color="#FF7787"/>
</linearGradient>
<clipPath id="clip0_34_165">
<rect width="4" height="3" fill="white" transform="translate(2 7)"/>
</clipPath>
</defs>
</svg>
