<svg width="23" height="18" viewBox="0 0 23 18" fill="none" xmlns="http://www.w3.org/2000/svg">
<path d="M21.5591 9.31214L21.5182 9.22705C20.1682 7.61032 18.1636 6.67432 16.1182 6.67432C15.9545 6.67432 15.8727 6.80195 15.8727 6.92959L15.7909 12.418H1.47272C1.34999 12.4605 1.22726 12.5881 1.22726 12.7158V14.9281C1.22726 15.0983 1.34999 15.1834 1.47272 15.1834H22.2545C22.4182 15.1834 22.5 15.0558 22.5 14.9281V11.8649C22.5 10.9289 22.1727 10.0354 21.5591 9.31214Z" fill="#FBB040"/>
<path d="M12.9273 0.25H2.08636C0.940909 0.25 0 1.22855 0 2.41982V9.61C0 10.7587 0.940909 11.7373 2.08636 11.7373H12.9682C14.1136 11.7373 15.0545 10.7587 15.0545 9.56746V2.41982C15.0136 1.22855 14.0727 0.25 12.9273 0.25Z" fill="url(#paint0_linear_34_115)"/>
<g clip-path="url(#clip0_34_115)">
<path opacity="0.9" d="M8.01835 4L4.41284 7.86842L2.99083 6.33882L2 7.40461L4.41284 10L9 5.06579L8.01835 4Z" fill="#FBB040"/>
</g>
<path d="M18.8182 17.0129C19.7219 17.0129 20.4546 16.251 20.4546 15.3111C20.4546 14.3712 19.7219 13.6093 18.8182 13.6093C17.9144 13.6093 17.1818 14.3712 17.1818 15.3111C17.1818 16.251 17.9144 17.0129 18.8182 17.0129Z" fill="#013177"/>
<path d="M18.8182 17.3958C17.7136 17.3958 16.8546 16.4598 16.8546 15.3536C16.8546 14.2049 17.7546 13.3114 18.8182 13.3114C19.9227 13.3114 20.7818 14.2474 20.7818 15.3536C20.7818 16.4598 19.8818 17.3958 18.8182 17.3958ZM18.8182 13.9921C18.1227 13.9921 17.55 14.5878 17.55 15.311C17.55 16.0343 18.1227 16.63 18.8182 16.63C19.5136 16.63 20.0864 16.0343 20.0864 15.311C20.0455 14.5878 19.5136 13.9921 18.8182 13.9921Z" fill="#013177"/>
<path d="M22.3773 10.8863C22.2136 10.2906 21.9682 9.73755 21.5591 9.31209L21.5182 9.227C20.5773 8.12082 19.3909 7.355 18.0409 6.97209C17.9591 6.92955 17.8773 6.97209 17.7955 7.01464C17.7136 7.05718 17.6727 7.14227 17.6727 7.22736V10.9714C17.6727 11.1416 17.7955 11.2266 17.9182 11.2266H22.0909C22.1727 11.2266 22.2546 11.1841 22.2955 11.099C22.3773 11.0565 22.4182 10.9714 22.3773 10.8863Z" fill="url(#paint1_linear_34_115)"/>
<path d="M4.41817 17.3533C5.50266 17.3533 6.38181 16.439 6.38181 15.3111C6.38181 14.1832 5.50266 13.2689 4.41817 13.2689C3.33368 13.2689 2.45453 14.1832 2.45453 15.3111C2.45453 16.439 3.33368 17.3533 4.41817 17.3533Z" fill="#AD1426"/>
<path d="M18.8182 17.3533C19.9027 17.3533 20.7818 16.439 20.7818 15.3111C20.7818 14.1832 19.9027 13.2689 18.8182 13.2689C17.7337 13.2689 16.8546 14.1832 16.8546 15.3111C16.8546 16.439 17.7337 17.3533 18.8182 17.3533Z" fill="#AD1426"/>
<path d="M4.41816 16.7576C5.18634 16.7576 5.80907 16.11 5.80907 15.3111C5.80907 14.5121 5.18634 13.8645 4.41816 13.8645C3.64998 13.8645 3.02725 14.5121 3.02725 15.3111C3.02725 16.11 3.64998 16.7576 4.41816 16.7576Z" fill="#F7B8BF"/>
<path d="M18.8182 16.7576C19.5864 16.7576 20.2091 16.11 20.2091 15.3111C20.2091 14.5121 19.5864 13.8645 18.8182 13.8645C18.05 13.8645 17.4273 14.5121 17.4273 15.3111C17.4273 16.11 18.05 16.7576 18.8182 16.7576Z" fill="#F7B8BF"/>
<defs>
<linearGradient id="paint0_linear_34_115" x1="7.59344" y1="6.0543" x2="7.67942" y2="0.158537" gradientUnits="userSpaceOnUse">
<stop stop-color="#F32940"/>
<stop offset="0.963542" stop-color="#FF7787"/>
</linearGradient>
<linearGradient id="paint1_linear_34_115" x1="20.0538" y1="9.11312" x2="20.0917" y2="6.92064" gradientUnits="userSpaceOnUse">
<stop stop-color="#F32940"/>
<stop offset="0.963542" stop-color="#FF7787"/>
</linearGradient>
<clipPath id="clip0_34_115">
<rect width="7" height="6" fill="white" transform="translate(2 4)"/>
</clipPath>
</defs>
</svg>
