<svg width="24" height="18" viewBox="0 0 24 18" fill="none" xmlns="http://www.w3.org/2000/svg">
<path d="M22.3091 9.31214L22.2682 9.22705C20.9182 7.61032 18.9136 6.67432 16.8682 6.67432C16.7045 6.67432 16.6227 6.80195 16.6227 6.92959L16.5409 12.418H2.22272C2.09999 12.4605 1.97726 12.5881 1.97726 12.7158V14.9281C1.97726 15.0983 2.09999 15.1834 2.22272 15.1834H23.0045C23.1682 15.1834 23.25 15.0558 23.25 14.9281V11.8649C23.25 10.9289 22.9227 10.0354 22.3091 9.31214Z" fill="#FBB040"/>
<path d="M13.6773 0.25H2.83636C1.69091 0.25 0.75 1.22855 0.75 2.41982V9.61C0.75 10.7587 1.69091 11.7373 2.83636 11.7373H13.7182C14.8636 11.7373 15.8045 10.7587 15.8045 9.56746V2.41982C15.7636 1.22855 14.8227 0.25 13.6773 0.25Z" fill="url(#paint0_linear_34_140)"/>
<g clip-path="url(#clip0_34_140)">
<path d="M5.98038 7.55906C5.96077 7.5 5.90195 7.46063 5.82352 7.46063H4.88234V5.17717C4.88234 5.07874 4.80391 5 4.70587 5H3.2745C3.19606 5 3.11763 5.07874 3.11763 5.17717V7.46063H2.17646C2.11763 7.46063 2.05881 7.5 2.01959 7.55906C1.99999 7.61811 1.99999 7.69685 2.0392 7.73622L3.82352 9.94094C3.86273 9.98031 3.90195 10 3.96077 10C4.01959 10 4.05881 9.98031 4.09803 9.94094L5.98038 7.73622C5.99999 7.69685 6.0196 7.61811 5.98038 7.55906Z" fill="#FBB040"/>
</g>
<path d="M19.5682 17.0129C20.4719 17.0129 21.2046 16.251 21.2046 15.3111C21.2046 14.3712 20.4719 13.6093 19.5682 13.6093C18.6644 13.6093 17.9318 14.3712 17.9318 15.3111C17.9318 16.251 18.6644 17.0129 19.5682 17.0129Z" fill="#013177"/>
<path d="M19.5682 17.3958C18.4636 17.3958 17.6046 16.4598 17.6046 15.3536C17.6046 14.2049 18.5046 13.3114 19.5682 13.3114C20.6727 13.3114 21.5318 14.2474 21.5318 15.3536C21.5318 16.4598 20.6318 17.3958 19.5682 17.3958ZM19.5682 13.9921C18.8727 13.9921 18.3 14.5878 18.3 15.311C18.3 16.0343 18.8727 16.63 19.5682 16.63C20.2636 16.63 20.8364 16.0343 20.8364 15.311C20.7955 14.5878 20.2636 13.9921 19.5682 13.9921Z" fill="#013177"/>
<path d="M23.1273 10.8863C22.9636 10.2906 22.7182 9.73755 22.3091 9.31209L22.2682 9.227C21.3273 8.12082 20.1409 7.355 18.7909 6.97209C18.7091 6.92955 18.6273 6.97209 18.5455 7.01464C18.4636 7.05718 18.4227 7.14227 18.4227 7.22736V10.9714C18.4227 11.1416 18.5455 11.2266 18.6682 11.2266H22.8409C22.9227 11.2266 23.0046 11.1841 23.0455 11.099C23.1273 11.0565 23.1682 10.9714 23.1273 10.8863Z" fill="url(#paint1_linear_34_140)"/>
<path d="M5.16817 17.3533C6.25266 17.3533 7.13181 16.439 7.13181 15.3111C7.13181 14.1832 6.25266 13.2689 5.16817 13.2689C4.08368 13.2689 3.20453 14.1832 3.20453 15.3111C3.20453 16.439 4.08368 17.3533 5.16817 17.3533Z" fill="#AD1426"/>
<path d="M19.5682 17.3533C20.6527 17.3533 21.5318 16.439 21.5318 15.3111C21.5318 14.1832 20.6527 13.2689 19.5682 13.2689C18.4837 13.2689 17.6046 14.1832 17.6046 15.3111C17.6046 16.439 18.4837 17.3533 19.5682 17.3533Z" fill="#AD1426"/>
<path d="M5.16816 16.7576C5.93634 16.7576 6.55907 16.11 6.55907 15.3111C6.55907 14.5121 5.93634 13.8645 5.16816 13.8645C4.39998 13.8645 3.77725 14.5121 3.77725 15.3111C3.77725 16.11 4.39998 16.7576 5.16816 16.7576Z" fill="#F7B8BF"/>
<path d="M19.5682 16.7576C20.3364 16.7576 20.9591 16.11 20.9591 15.3111C20.9591 14.5121 20.3364 13.8645 19.5682 13.8645C18.8 13.8645 18.1773 14.5121 18.1773 15.3111C18.1773 16.11 18.8 16.7576 19.5682 16.7576Z" fill="#F7B8BF"/>
<defs>
<linearGradient id="paint0_linear_34_140" x1="8.34344" y1="6.0543" x2="8.42942" y2="0.158537" gradientUnits="userSpaceOnUse">
<stop stop-color="#F32940"/>
<stop offset="0.963542" stop-color="#FF7787"/>
</linearGradient>
<linearGradient id="paint1_linear_34_140" x1="20.8038" y1="9.11312" x2="20.8417" y2="6.92064" gradientUnits="userSpaceOnUse">
<stop stop-color="#F32940"/>
<stop offset="0.963542" stop-color="#FF7787"/>
</linearGradient>
<clipPath id="clip0_34_140">
<rect width="4" height="5" fill="white" transform="translate(2 5)"/>
</clipPath>
</defs>
</svg>
